<svg xmlns="http://www.w3.org/2000/svg" version="1.1" xmlns:xlink="http://www.w3.org/1999/xlink" xmlns:svgjs="http://svgjs.com/svgjs" width="1920" height="1080" preserveAspectRatio="none" viewBox="0 0 1920 1080"><g mask="url(&quot;#SvgjsMask1000&quot;)" fill="none"><path d="M275.94 1186.35C475.87 1131.63 532.64 585.78 837.25 576.13 1141.87 566.48 1117.91 711.13 1398.57 711.13 1679.22 711.13 1815.55 577.07 1959.88 576.13" stroke="rgba(194, 51, 80, 0.58)" stroke-width="2"></path><path d="M1065.3 1174.39C1305.14 1009.75 1286.85 160.2 1592.76 137.14 1898.68 114.08 1954.77 524.33 2120.23 547.54" stroke="rgba(194, 51, 80, 0.58)" stroke-width="2"></path><path d="M504.6 1287.15C699.22 1213.41 558.15 668.48 1009.2 625.05 1460.26 581.62 1752.62 294.58 2018.41 290.25" stroke="rgba(194, 51, 80, 0.58)" stroke-width="2"></path><path d="M817.98 1294.37C975.44 1208.94 904.33 682.05 1188.08 680.76 1471.83 679.47 1720.77 1048.03 1928.28 1058.76" stroke="rgba(194, 51, 80, 0.58)" stroke-width="2"></path><path d="M539.25 1177.82C765.02 1170.32 906.6 842.36 1369.09 820.25 1831.57 798.14 1961.69 371.29 2198.92 355.85" stroke="rgba(194, 51, 80, 0.58)" stroke-width="2"></path></g><defs><mask id="SvgjsMask1000"><rect width="1920" height="1080" fill="#ffffff"></rect></mask></defs></svg>